HIERARCHY
ROOT Hips
{
	OFFSET 0.00000 0.00000 0.00000
	CHANNELS 6 Xposition Yposition Zposition Yrotation Zrotation Xrotation 
	JOINT Lumbar
	{
		OFFSET 0 0 0
		CHANNELS 3 Zrotation Xrotation Yrotation
		JOINT Neck
		{
			OFFSET 0.00 0.2701 0.00
			CHANNELS 3 Zrotation Xrotation Yrotation
			End Site
			{
				OFFSET 0.00 0.1379 0.00
			}
		}
		JOINT RightShoulder
		{
			OFFSET 0.0119 0.2289 0.1181
			CHANNELS 3 Zrotation Xrotation Yrotation
			JOINT RightElbow
			{
				OFFSET 0.00 -0.1475 0.00
				CHANNELS 2 Zrotation Yrotation
				JOINT RightWrist
				{
					OFFSET 0.00 -0.1605 0.00
					CHANNELS 2 Zrotation Xrotation
					End Site
					{
						OFFSET 0.0040 -0.1068 0.0006
					}
				}
			}
		}
		JOINT LeftShoulder
		{
			OFFSET 0.0119 0.2289 -0.1181
			CHANNELS 3 Zrotation Xrotation Yrotation
			JOINT LeftElbow
			{
				OFFSET 0.00 -0.1475 0.00
				CHANNELS 2 Zrotation Yrotation
				JOINT LeftWrist
				{
					OFFSET 0.00 -0.1605 0.00
					CHANNELS 2 Zrotation Xrotation
					End Site
					{
						OFFSET 0.0040 -0.1068 -0.0006
					}
				}
			}
		}
	}
	JOINT RightHip
	{
		OFFSET 0.0316 -0.0424 0.0458
		CHANNELS 3 Zrotation Xrotation Yrotation
		JOINT RightKnee
		{
			OFFSET 0.00 -0.2438 0.00
			CHANNELS 1 Zrotation
			JOINT RightAnkle
			{
				OFFSET 0.00 -0.2449 0.00
				CHANNELS 3 Zrotation Xrotation Yrotation
				End Site
				{
					OFFSET 0.1237 -0.0542 0.0051
				}
			}
		}
	}
	JOINT LeftHip
	{
		OFFSET 0.0316 -0.0424 -0.0458
		CHANNELS 3 Zrotation Xrotation Yrotation
		JOINT LeftKnee
		{
			OFFSET 0.00 -0.2438 0.00
			CHANNELS 1 Zrotation
			JOINT LeftAnkle
			{
				OFFSET 0.00 -0.2449 0.00
				CHANNELS 3 Zrotation Xrotation Yrotation
				End Site
				{
					OFFSET 0.1237 -0.0542 -0.0051
				}
			}
		}
	}
}
MOTION
Frames: 30
Frame Time: 0.02
0.54694 -0.02034 -0.35645 606.95946 -19.4005 -3.79296 35.65261 3.53743 12.39345 -12.93134 9.24688 -2.11994 6.91405 5.03644 49.52468 93.50417 88.66184 -9.56808 -6.6591 -37.87074 20.62422 19.41052 60.10353 -80.88128 -4.13992 0.15483 28.35342 -2.36578 -18.66414 -30.99236 -7.22342 -3.67377 -4.05593 48.03853 7.30836 -12.23391 -76.05417 -11.09611 1.33285 3.09089
0.54306 -0.01909 -0.35333 607.65947 -19.47901 -3.15135 35.55839 3.78816 13.59897 -13.32306 8.74088 -2.11994 7.16772 4.85621 49.93428 93.50286 88.76979 -9.87885 -6.95632 -39.82349 22.83904 26.10243 56.85459 -80.48357 -4.49736 -0.03384 28.01641 -2.79851 -18.86915 -31.22854 -7.27867 -3.68393 -4.06432 49.12342 6.19973 -9.33585 -74.899 -10.9317 1.40817 3.11352
0.53976 -0.01731 -0.34988 608.09473 -19.68596 -2.45822 35.58854 4.05927 14.75627 -13.76234 8.12845 -2.11994 7.49999 4.4902 50.38948 93.65793 88.73432 -10.14712 -7.21539 -42.08321 25.3847 33.68588 53.52569 -79.97105 -4.89849 -0.22772 27.81682 -3.35538 -19.05495 -31.32893 -7.34949 -3.66109 -4.05763 50.03731 5.21568 -5.91497 -72.59424 -10.84634 1.39983 3.09571
0.53621 -0.01579 -0.34658 608.64599 -19.8386 -1.79995 35.56069 4.32091 15.92015 -14.17645 7.57188 -2.11994 7.79193 4.22178 50.80621 93.73129 88.79062 -10.46655 -7.47197 -44.22826 27.87969 40.83849 50.15693 -79.40933 -5.4106 -0.4116 27.56087 -3.83646 -19.21746 -31.48938 -7.41429 -3.6538 -4.05814 51.0027 4.18167 -2.74322 -70.74354 -10.72052 1.43267 3.09817
0.53263 -0.01416 -0.34331 609.20413 -19.97545 -1.08502 35.53834 4.58449 17.15798 -14.60873 6.98041 -2.11994 8.10638 3.89719 51.3035 93.84783 88.73702 -10.65724 -7.80847 -46.36793 29.95718 48.23294 47.08403 -79.24014 -5.41103 -0.62483 27.28236 -4.40595 -19.51412 -31.64593 -7.47674 -3.64103 -4.0558 52.08171 3.10988 0.5184 -69.17993 -10.60419 1.45345 3.0929
0.52923 -0.01265 -0.33989 609.68952 -20.17508 -0.47963 35.53487 4.84794 18.22567 -15.01184 6.43723 -2.11994 8.39121 3.64654 51.64175 93.91253 88.87425 -11.09765 -7.97352 -48.47439 32.98919 55.1831 43.40764 -78.27161 -6.4338 -0.7825 27.08168 -4.81874 -19.53148 -31.783 -7.54669 -3.63295 -4.05628 52.87938 2.14722 3.69151 -66.74209 -10.49199 1.47969 3.09443
0.52616 -0.01159 -0.33618 610.0371 -20.51781 -0.18226 35.54714 5.11211 18.84826 -15.33975 6.05792 -2.11994 8.57796 3.63446 51.5291 93.7926 89.61183 -12.31366 -7.64066 -51.43468 38.46963 61.99124 37.81491 -74.72044 -10.75076 -0.74231 27.06911 -4.76257 -18.72868 -31.89364 -7.63708 -3.64693 -4.06902 52.97889 1.4924 6.60793 -62.22434 -10.35505 1.53941 3.12306
0.52326 -0.01069 -0.33233 610.32234 -20.91884 0.0009 35.57545 5.37392 19.29726 -15.63315 5.73048 -2.11994 8.73143 3.70472 51.25465 93.61617 90.5393 -13.76831 -7.14218 -54.19048 44.90814 68.11555 31.66817 -70.43747 -16.01268 -0.65181 27.12822 -4.54478 -17.65463 -31.99184 -7.73356 -3.66703 -4.08517 52.79506 0.93904 9.38889 -56.86192 -10.22422 1.61213 3.16251
0.52029 -0.00975 -0.32852 610.63909 -21.29228 0.23031 35.60009 5.63316 19.81675 -15.93113 5.37698 -2.11994 8.89752 3.74508 51.05314 93.46754 91.35503 -15.0646 -6.74285 -56.32957 50.98781 73.6454 25.95165 -66.76227 -20.51735 -0.61524 27.15002 -4.40345 -16.73976 -32.10115 -7.82469 -3.68415 -4.09944 52.71587 0.3156 12.15483 -51.84676 -10.10221 1.67422 3.19492
0.51731 -0.00866 -0.32481 610.93374 -21.67501 0.48456 35.61298 5.90979 20.37215 -16.27814 5.03057 -2.11994 9.07612 3.74917 50.85357 93.3142 92.27364 -16.57099 -6.24472 -61.34687 56.79406 82.86486 19.47827 -61.948 -26.37809 -0.45652 27.19774 -4.25268 -15.6739 -32.18283 -7.92733 -3.70093 -4.11457 52.72954 -0.20657 15.27293 -46.92761 -9.93214 1.73479 3.22512
0.51438 -0.00794 -0.32085 611.26215 -22.05034 0.66048 35.65353 6.14775 20.80961 -16.51364 4.68266 -2.11994 9.22078 3.84833 50.61373 93.15668 93.0243 -17.69588 -5.90932 -60.47805 63.34525 84.43048 14.45165 -59.30039 -29.675 -0.52914 27.20531 -4.08301 -14.8568 -32.32051 -8.00722 -3.72026 -4.1289 52.48855 -0.91208 17.60583 -41.64586 -9.86475 1.82599 3.27527
0.51154 -0.0082 -0.31634 611.70811 -22.3921 0.63678 35.75766 6.29348 20.98548 -16.45397 4.32241 -2.11994 9.27027 4.21174 50.27755 92.98813 93.26788 -17.718 -6.10065 -42.00251 72.12675 63.23829 13.55262 -63.10651 -25.3406 -1.34925 27.09539 -3.88798 -14.80703 -32.62027 -8.02275 -3.74575 -4.14034 51.58145 -2.19209 17.91772 -35.38113 -10.05901 1.78437 3.26523
0.50875 -0.00885 -0.31157 612.18935 -22.7235 0.54001 35.89028 6.39784 21.04503 -16.28218 3.95866 -2.11994 9.28797 4.66473 49.91075 92.819 93.33408 -17.34624 -6.45507 -17.86093 81.54727 34.68206 14.1313 -69.06594 -18.45113 -2.38694 26.93962 -3.68177 -15.01483 -32.97664 -8.01517 -3.77354 -4.15087 50.43474 -3.65232 17.42749 -28.82389 -10.35818 1.80301 3.29056
0.50595 -0.00933 -0.30684 612.65052 -23.05828 0.4838 36.01484 6.51168 21.14368 -16.15875 3.59397 -2.11994 9.32634 5.06343 49.57395 92.65812 93.48258 -17.14935 -6.71051 2.75548 90.4059 10.6854 14.03374 -73.84687 -12.94379 -3.26046 26.79726 -3.48768 -15.09504 -33.30498 -8.01801 -3.80016 -4.16188 49.4197 -5.00253 17.21754 -22.52702 -10.62445 1.94832 3.38087
0.50312 -0.00977 -0.30244 613.12851 -23.40089 0.3926 36.11873 6.66411 21.29361 -16.04529 3.2413 -2.11994 9.33803 5.52267 49.16376 92.46177 93.63841 -16.97915 -7.06396 27.35 100.44343 -18.39508 13.92994 -79.44011 -6.54435 -4.40352 26.68977 -3.25607 -15.20857 -33.64275 -8.02112 -3.82794 -4.17292 48.29842 -6.469 17.32838 -15.65254 -10.83539 1.48686 3.15223
0.50036 -0.01039 -0.29727 613.57802 -23.72383 0.35844 36.27306 6.72724 21.31228 -15.88461 2.86257 -2.11994 9.3973 5.87549 48.90109 92.33971 93.72444 -16.65554 -7.25562 45.05234 108.16584 -38.70231 14.20562 -83.87 -1.3742 -5.04293 26.49666 -3.10485 -15.31949 -33.9742 -8.01848 -3.85323 -4.18337 47.34533 -7.736 16.62054 -9.93455 -11.17786 2.24916 3.56747
0.49775 -0.01145 -0.29016 613.96374 -23.99474 0.49992 36.55197 6.54614 20.99025 -15.62365 2.40921 -2.11994 9.60296 5.91688 49.05544 92.42441 93.74845 -16.01433 -6.94898 41.89901 109.31847 -32.32656 15.10167 -84.49788 -0.30372 -4.19219 26.08836 -3.15442 -15.33987 -34.27868 -8.00339 -3.87577 -4.19477 46.9152 -8.42095 13.51427 -7.38853 -11.93223 6.85055 6.00321
0.49524 -0.01267 -0.28226 614.31559 -24.24551 0.70182 36.88177 6.27797 20.54241 -15.31885 1.93062 -2.11994 9.85633 5.8469 49.35955 92.58375 93.69319 -15.23005 -6.47694 31.69648 108.11574 -16.98705 16.34484 -83.89598 -0.53937 -2.83635 25.59385 -3.2902 -15.35118 -34.57516 -7.98453 -3.89483 -4.2052 46.66333 -8.89697 9.67104 -6.03846 -12.80224 12.59935 9.04225
0.49271 -0.01379 -0.27464 614.66781 -24.50587 0.87651 37.19358 6.05486 20.15726 -15.03234 1.46503 -2.11994 10.08334 5.82462 49.59471 92.70838 93.61338 -14.5028 -6.08905 25.00497 108.00297 -6.17691 17.47375 -83.90209 -0.11909 -1.74173 25.13106 -3.40339 -15.38479 -34.87125 -7.96777 -3.91238 -4.21445 46.33235 -9.4609 6.38962 -4.20602 -13.56951 17.50317 11.63588
0.49005 -0.01502 -0.26737 615.0844 -24.7658 1.04765 37.4857 5.80745 19.74404 -14.7482 0.9909 -2.11994 10.32925 5.81772 49.83313 92.83684 93.77468 -13.79266 -5.66868 17.20582 107.84029 6.3025 18.46574 -83.77588 0.12866 -0.5192 24.69567 -3.44739 -15.36162 -35.18206 -7.94514 -3.94304 -4.23034 45.98789 -10.06119 2.13755 -2.10384 -14.54905 23.74795 14.93938
0.48768 -0.01607 -0.25917 615.35869 -25.01977 1.24133 37.82928 5.5901 19.36171 -14.45092 0.53107 -2.11994 10.54717 5.75128 50.09988 92.97438 93.42797 -13.02181 -5.27479 9.97513 107.2016 17.52651 19.81183 -83.60475 0.38968 0.5575 24.18652 -3.65444 -15.43725 -35.46488 -7.93844 -3.94556 -4.23241 45.71313 -10.53326 -0.27656 -0.85251 -15.11667 27.50534 16.92509
0.48602 -0.0166 -0.24866 615.24637 -25.28006 1.48388 38.31221 5.48093 19.08987 -14.12247 0.09621 -2.11994 10.68019 5.54571 50.41621 93.12521 91.60531 -12.08767 -4.99215 5.92846 105.92697 23.15578 21.99284 -83.6051 1.01822 1.12793 23.46877 -4.30685 -15.91107 -35.62938 -7.93942 -3.87064 -4.19428 45.62061 -10.70624 2.73448 -1.65172 -14.48213 23.81835 14.96817
0.48464 -0.01693 -0.23724 614.99263 -25.53121 1.74679 38.84259 5.40447 18.85508 -13.78412 -0.31924 -2.11994 10.78329 5.28384 50.75451 93.28168 89.29178 -11.10532 -4.74152 2.68784 104.23491 27.23683 24.51894 -83.59282 1.68962 1.53171 22.6859 -5.11817 -16.46335 -35.77554 -7.96329 -3.76744 -4.14261 45.58617 -10.75579 7.59254 -3.26795 -13.43523 17.64198 11.69254
0.48316 -0.01732 -0.2262 614.80418 -25.77555 2.00026 39.34551 5.31079 18.6077 -13.45427 -0.73034 -2.11994 10.89696 5.04872 51.07777 93.43099 87.26519 -10.16679 -4.47697 -0.87626 102.66014 32.02186 26.92115 -83.57921 2.32206 1.9995 21.94878 -5.84525 -16.89386 -35.9557 -8.00163 -3.67773 -4.09876 45.50566 -10.85843 11.49845 -4.51681 -12.60057 12.80013 9.12375
0.48156 -0.01786 -0.21523 614.60848 -26.06763 2.25801 39.87765 5.22421 18.33811 -13.10508 -1.19906 -2.11994 11.02303 4.80538 51.42782 93.60119 84.96817 -9.12946 -4.20406 -4.85777 101.29808 37.11509 29.20864 -83.55438 2.99564 2.53346 21.13605 -6.62306 -17.6755 -36.01981 -7.93619 -3.58584 -4.04823 45.51806 -10.96658 15.85623 -5.79366 -11.66547 7.14573 6.12479
0.48029 -0.01804 -0.20393 614.39696 -26.25564 2.50909 40.35635 5.13146 18.12501 -12.79548 -1.54142 -2.11994 11.11805 4.56657 51.72505 93.72967 83.1163 -8.2897 -3.95833 -7.69455 99.43854 41.0806 31.79813 -83.56508 3.60684 2.88451 20.47194 -7.33559 -17.75991 -36.33071 -8.09068 -3.49103 -4.00789 45.34371 -11.03666 19.71858 -7.18684 -10.8397 2.57103 3.69728
0.47989 -0.0172 -0.19181 614.15901 -26.18225 2.75101 40.70243 5.01706 18.06024 -12.58894 -1.55141 -2.11994 11.11275 4.36033 51.87253 93.72851 82.63779 -7.99751 -3.78077 -7.47061 96.19819 42.28732 35.25345 -83.6843 4.06875 2.75935 20.188 -7.79446 -15.76672 -37.24478 -8.86019 -3.40243 -4.00359 44.67959 -11.03134 21.78519 -8.72901 -10.42009 1.63821 3.19771
0.47982 -0.01602 -0.17941 613.91453 -26.00033 2.98186 40.9877 4.8955 18.05052 -12.42443 -1.43266 -2.11994 11.08082 4.16008 51.96491 93.68689 82.62077 -7.90837 -3.63039 -6.0997 92.5051 42.36587 38.97601 -83.84401 4.46677 2.45507 20.06505 -8.18676 -13.09385 -38.42108 -9.84657 -3.31095 -4.00931 43.81739 -10.99252 23.28699 -10.34845 -10.12376 1.86271 3.31072
0.4796 -0.01504 -0.16721 613.68321 -25.85234 3.20903 41.28335 4.775 18.01644 -12.24658 -1.36481 -2.11994 11.07555 3.95336 52.08097 93.67243 82.37625 -7.73353 -3.46737 -5.29009 89.10108 42.94049 42.49943 -83.98667 4.87801 2.23877 19.89889 -8.63357 -10.81969 -39.53454 -10.72649 -3.21543 -4.00722 43.01839 -10.9711 25.03746 -11.90893 -9.76786 1.51762 3.12214
0.47938 -0.01386 -0.15467 613.39942 -25.7681 3.47662 41.65424 4.66339 17.98449 -12.04402 -1.32795 -2.11994 11.00888 3.75994 52.20425 93.62257 82.18688 -7.52936 -3.30537 -4.31226 85.32378 43.56471 46.36776 -84.12356 5.35539 1.99136 19.60335 -8.98943 -8.16972 -40.41886 -11.64556 -3.13972 -4.01772 42.33381 -10.93839 26.89281 -13.60118 -9.41159 1.26986 2.98539
